<?xml version="1.0" standalone="no"?><!DOCTYPE svg PUBLIC "-//W3C//DTD SVG 1.1//EN" "http://www.w3.org/Graphics/SVG/1.1/DTD/svg11.dtd"><svg t="1755221774671" class="icon" viewBox="0 0 1024 1024" version="1.1" xmlns="http://www.w3.org/2000/svg" p-id="38484" xmlns:xlink="http://www.w3.org/1999/xlink" width="200" height="200"><path d="M512 64a64.1024 64.1024 0 1 1 0 128.256 64.1024 64.1024 0 0 1 0-128.256z m-137.4208 21.504a448.1536 448.1536 0 0 0-288.9728 564.3264 32.0512 32.0512 0 0 0 60.928-19.6608 384.1536 384.1536 0 0 1 247.6544-483.7888 32 32 0 0 0-19.6096-60.928z m502.1696 547.0208a31.9488 31.9488 0 1 0 60.7744 19.968A448.1536 448.1536 0 0 0 650.7008 86.016a32 32 0 1 0-19.7632 60.8768 384.2048 384.2048 0 0 1 245.76 485.632zM308.5312 308.5312A285.7984 285.7984 0 0 0 224.3072 512a285.5424 285.5424 0 0 0 84.224 203.4176A285.7984 285.7984 0 0 0 512 799.744a285.8496 285.8496 0 0 0 203.4688-84.2752A285.8496 285.8496 0 0 0 799.6928 512a285.8496 285.8496 0 0 0-84.2752-203.4688A285.7984 285.7984 0 0 0 512 224.256a285.7984 285.7984 0 0 0-203.4688 84.2752z m67.2256 246.3232a8.6528 8.6528 0 0 0 1.1264 8.3456 9.8816 9.8816 0 0 0 7.936 3.9424h70.2976c3.1744 0 6.1952 1.4848 7.9872 3.9936 1.792 2.4576 2.2016 5.632 0.9728 8.448l-60.928 143.3088a8.7552 8.7552 0 0 0 4.0448 11.1616c4.096 2.304 9.3184 1.4848 12.3392-1.9456l213.0944-237.3632a8.704 8.704 0 0 0 1.3824-9.6256 9.728 9.728 0 0 0-8.704-5.3248h-103.424q-8.192 0.8192-9.8816-2.2528t2.1504-12.288l42.1888-209.408a9.5744 9.5744 0 0 0-9.0112 5.6832l-171.52 293.376zM160.256 680.448a64.1024 64.1024 0 1 0 64.1024 111.104 64.1024 64.1024 0 0 0-64.1024-111.104z m735.6928 55.552q0 3.1232-0.3072 6.2976-0.3072 3.072-0.9216 6.1952-0.6144 3.072-1.536 6.144-0.9216 2.9696-2.0992 5.888-1.2288 2.9184-2.7136 5.6832-1.4848 2.816-3.2256 5.4272-1.7408 2.56-3.7376 5.0176-2.048 2.4576-4.2496 4.6592-2.2016 2.2528-4.6592 4.2496-2.4064 1.9968-5.0688 3.7376-2.56 1.7408-5.376 3.2256-2.7648 1.536-5.6832 2.7136-2.9184 1.2288-5.9392 2.0992-3.0208 0.9216-6.144 1.536-3.072 0.6144-6.144 0.9216-3.1744 0.3072-6.2976 0.3072-3.1744 0-6.2976-0.3072T819.2 798.8736q-3.072-0.6144-6.0928-1.536t-5.9392-2.0992q-2.8672-1.2288-5.632-2.7136-2.816-1.4848-5.4272-3.2256t-5.0688-3.7376q-2.4576-2.048-4.6592-4.2496-2.2016-2.2016-4.1984-4.608-2.048-2.4576-3.7888-5.12-1.7408-2.56-3.2256-5.376-1.4848-2.7648-2.6624-5.632-1.2288-2.9696-2.1504-5.9904-0.9216-2.9696-1.536-6.0928-0.6144-3.072-0.9216-6.1952-0.3072-3.1744-0.3072-6.2976 0-3.1744 0.3072-6.2976t0.9216-6.1952q0.6144-3.072 1.536-6.144 0.9216-2.9696 2.1504-5.888 1.1776-2.9184 2.6624-5.7344 1.536-2.7648 3.2256-5.376 1.7408-2.6112 3.7376-5.0688 2.048-2.4064 4.2496-4.608 2.2016-2.2528 4.6592-4.2496 2.4576-2.048 5.0688-3.7376 2.6112-1.792 5.376-3.2768 2.816-1.4848 5.6832-2.6624 2.9184-1.2288 5.9392-2.1504 3.0208-0.8704 6.144-1.536 3.072-0.5632 6.144-0.9216 3.1744-0.256 6.3488-0.256 3.1232 0 6.2464 0.3072 3.1744 0.3072 6.2464 0.9216 3.072 0.6144 6.144 1.536 2.9696 0.8704 5.888 2.048 2.9184 1.2288 5.632 2.7136 2.816 1.536 5.4272 3.2768 2.6624 1.7408 5.0688 3.7376 2.4576 1.9968 4.6592 4.1984 2.2528 2.2528 4.2496 4.6592 1.9968 2.4576 3.7376 5.12 1.7408 2.56 3.2256 5.3248 1.4848 2.816 2.7136 5.7344 1.1776 2.8672 2.0992 5.888 0.9216 3.072 1.536 6.144t0.9216 6.1952q0.3072 3.1232 0.3072 6.2976z m-657.1008 131.072A446.1568 446.1568 0 0 0 512 960h0.7168c100.0448 0 197.12-33.6384 275.7632-95.488a32 32 0 1 0-39.4752-50.3296A382.208 382.208 0 0 1 512 896a382.208 382.208 0 0 1-234.1376-79.616 32 32 0 1 0-39.0656 50.688z" p-id="38485"></path></svg>