<svg xmlns="http://www.w3.org/2000/svg" xmlns:xlink="http://www.w3.org/1999/xlink" width="130.330078125" height="146.911865234375" viewBox="0 0 130.330078125 146.911865234375" fill="none"><path d="M122.1 68.9018C122.1 83.1014 116.3 95.902 106.999 105.102C97.8998 114.202 85.2999 119.702 71.3999 119.702C57.6004 119.702 44.9994 114.102 35.8004 105.102C26.5 95.902 20.7 83.1014 20.7 68.9018C20.7 40.8023 43.4004 18.1018 71.3999 18.1018C99.3995 18.1018 122.1 40.9019 122.1 68.9018Z"   fill="#EAEEF9" ></path><path d="M121.8 31.5016C121.8 33.766 119.964 35.6016 117.7 35.6016C115.436 35.6016 113.6 33.766 113.6 31.5016C113.6 29.2373 115.436 27.4016 117.7 27.4016C119.964 27.4016 121.8 29.2373 121.8 31.5016Z"   fill="#EAEEF9" ></path><path d="M126.5 16.8017C126.5 18.3481 125.246 19.6017 123.7 19.6017C122.154 19.6017 120.9 18.3481 120.9 16.8017C120.9 15.2553 122.154 14.0017 123.7 14.0017C125.246 14.0017 126.5 15.2553 126.5 16.8017Z"   fill="#EAEEF9" ></path><path d="M25.1 32.7016C25.1 34.248 23.8464 35.5016 22.3 35.5016C20.7536 35.5016 19.5 34.248 19.5 32.7016C19.5 31.1552 20.7536 29.9016 22.3 29.9016C23.8464 29.9016 25.1 31.1552 25.1 32.7016Z"   fill="#EAEEF9" ></path><path d="M10.4 84.3018C10.4 87.1737 8.07186 89.5018 5.2 89.5018C2.32814 89.5018 0 87.1737 0 84.3018C0 81.4299 2.32814 79.1018 5.2 79.1018C8.07186 79.1018 10.4 81.4299 10.4 84.3018Z"   fill="#EAEEF9" ></path><g filter="url(#filter_QnEk4mo2nV)"><path d="M107.53 45.6121L108.33 110.011C108.33 112.212 106.53 113.912 104.33 113.912L41.5302 113.912C39.3298 113.912 37.53 112.112 37.53 110.011L37.53 27.2121C37.53 25.0114 39.3298 23.3118 41.5302 23.3118L87.0298 23.3118L107.53 45.6121Z"   fill="url(#linear_fill_QnEk4mo2nV)" ></path></g><path d="M70.23 36.8119L48.1299 36.8119C47.4299 36.8119 46.83 36.2119 46.83 35.5119C46.83 34.8119 47.4299 34.2119 48.1299 34.2119L70.23 34.2119C70.93 34.2119 71.53 34.8119 71.53 35.5119C71.53 36.2119 70.93 36.8119 70.23 36.8119Z"   fill="#D5DDEA" ></path><path d="M59.7299 44.0119L48.13 44.0119C47.4299 44.0119 46.83 43.4119 46.83 42.7119C46.83 42.0119 47.4299 41.4119 48.13 41.4119L59.6299 41.4119C60.33 41.4119 60.93 42.0119 60.93 42.7119C60.93 43.4119 60.33 44.0119 59.7299 44.0119Z"   fill="#D5DDEA" ></path><path d="M87.03 23.3118L87.03 41.1119C87.03 43.6117 89.2301 45.6118 91.7301 45.6118L107.53 45.6118L87.03 23.3118Z"   fill="#D5DDEA" ></path><path d="M61.5084 19.8158L56.7579 36.5748L68.7594 42.8134L68.1272 62.0538L79.4875 37.2013L74.21 32.985L81.0227 22.063L61.5084 19.8158Z"   fill="#EAEEF9" ></path><path    stroke="rgba(162, 171, 190, 1)" stroke-width="2"    d="M57.2 11.6719L56.2405 20.5104"></path><path    stroke="rgba(162, 171, 190, 1)" stroke-width="2"    d="M75.3237 24.2663L77.8855 0.105469"></path><path    stroke="rgba(162, 171, 190, 1)" stroke-width="2"    d="M84.7216 27.2098L90.3391 4.40454"></path><path d="M58.4811 89.0605C57.8929 88.4721 57.8929 87.4635 58.4811 86.8752C62.3453 83.0929 67.4696 80.9917 72.93 80.9917C78.3905 80.9917 83.5147 83.0929 87.379 86.8752C87.9671 87.4635 87.9671 88.4721 87.379 89.0605C86.7908 89.6488 85.7828 89.6488 85.1949 89.0605C81.9185 85.7825 77.5504 84.0175 72.93 84.0175C68.3097 84.0175 63.9415 85.7825 60.6651 89.0605C60.3292 89.3126 59.9933 89.4807 59.5731 89.4807C59.1532 89.4807 58.817 89.3126 58.4811 89.0605Z"   fill="#989FB0" ></path><path d="M60.6645 71.1618L62.68 69.146L64.6956 71.1618C65.0315 71.4978 65.3674 71.5818 65.7874 71.5818C66.2073 71.5818 66.5432 71.4138 66.8792 71.1618C67.467 70.5739 67.467 69.566 66.8792 68.9781L64.8635 66.9622L66.8792 64.9465C67.467 64.3585 67.467 63.3507 66.8792 62.7627C66.2913 62.1748 65.2834 62.1748 64.6956 62.7627L62.68 64.7785L60.6645 62.7627C60.0766 62.1748 59.0688 62.1748 58.4809 62.7627C57.893 63.3507 57.893 64.3585 58.4809 64.9465L60.4965 66.9622L58.4809 68.9781C57.893 69.566 57.893 70.5739 58.4809 71.1618C58.8169 71.4978 59.1528 71.5818 59.5727 71.5818C59.9926 71.5818 60.3286 71.4138 60.6645 71.1618Z"   fill="#989FB0" ></path><path d="M81.0744 62.7627C80.4865 62.1748 79.4787 62.1748 78.8908 62.7627C78.303 63.3507 78.303 64.3585 78.8908 64.9465L80.9065 66.9622L78.8908 68.9781C78.303 69.566 78.303 70.5739 78.8908 71.1618C79.2268 71.4978 79.5627 71.5818 79.9826 71.5818C80.4026 71.5818 80.7385 71.4138 81.0744 71.1618L83.09 69.146L85.1055 71.1618C85.4414 71.4978 85.7773 71.5818 86.1973 71.5818C86.6172 71.5818 86.9531 71.4138 87.2891 71.1618C87.8769 70.5739 87.8769 69.566 87.2891 68.9781L85.2734 66.9622L87.2891 64.9465C87.8769 64.3585 87.8769 63.3507 87.2891 62.7627C86.7012 62.1748 85.6934 62.1748 85.1055 62.7627L83.09 64.7785L81.0744 62.7627Z"   fill="#989FB0" ></path><defs><linearGradient id="linear_fill_QnEk4mo2nV" x1="72.906982421875" y1="21.216064453125" x2="72.906982421875" y2="114.888427734375" gradientUnits="userSpaceOnUse"><stop offset="0" stop-color="#FDFEFF"  /><stop offset="0.996399998664856" stop-color="#ECF0F5"  /></linearGradient><filter id="filter_QnEk4mo2nV" x="15.530029296875" y="12.311767578125" width="114.800048828125" height="134.60009765625" filterUnits="userSpaceOnUse" color-interpolation-filters="sRGB"><feFlood flood-opacity="0" result="feFloodId_QnEk4mo2nV"/><feColorMatrix in="SourceAlpha" type="matrix" values="0 0 0 0 0 0 0 0 0 0 0 0 0 0 0 0 0 0 127 0" result="hardAlpha_QnEk4mo2nV"/><feOffset dx="0" dy="11"/><feGaussianBlur stdDeviation="11"/><feComposite in2="hardAlpha_QnEk4mo2nV" operator="out"/><feColorMatrix type="matrix" values="0 0 0 0 0.396078431372549 0 0 0 0 0.47843137254901963 0 0 0 0 0.5764705882352941 0 0 0 0.27 0"/><feBlend mode="normal" in2="feFloodId_QnEk4mo2nV" result="dropShadow_1_QnEk4mo2nV"/><feBlend mode="normal" in="SourceGraphic" in2="dropShadow_1_QnEk4mo2nV" result="shape_QnEk4mo2nV"/></filter></defs></svg>