<?xml version="1.0" standalone="no"?><!DOCTYPE svg PUBLIC "-//W3C//DTD SVG 1.1//EN" "http://www.w3.org/Graphics/SVG/1.1/DTD/svg11.dtd"><svg height="1100" node-id="1" sillyvg="true" template-height="1100" template-width="1100" version="1.1" viewBox="0 0 1100 1100" width="1100" xmlns="http://www.w3.org/2000/svg" xmlns:xlink="http://www.w3.org/1999/xlink"><defs node-id="61"><linearGradient gradientUnits="objectBoundingBox" id="linearGradient-1" node-id="5" spreadMethod="pad" x1="0.5" x2="0.5" y1="1" y2="0"><stop offset="0.0000004475343" stop-color="#ffffff" stop-opacity="0"></stop><stop offset="1" stop-color="#e6ebea"></stop></linearGradient><linearGradient gradientUnits="objectBoundingBox" id="linearGradient-2" node-id="8" spreadMethod="pad" x1="0.5" x2="0.5" y1="1" y2="0"><stop offset="0.0000004475343" stop-color="#ffffff" stop-opacity="0"></stop><stop offset="1" stop-color="#e4ebe9"></stop></linearGradient><linearGradient gradientUnits="objectBoundingBox" id="linearGradient-3" node-id="11" spreadMethod="pad" x1="0.5" x2="0.5" y1="1" y2="0"><stop offset="0.0000004475343" stop-color="#ffffff" stop-opacity="0"></stop><stop offset="1" stop-color="#e4ebe9"></stop></linearGradient><linearGradient gradientUnits="objectBoundingBox" id="linearGradient-4" node-id="14" spreadMethod="pad" x1="0.5" x2="0.5" y1="1" y2="0"><stop offset="0.0000004475343" stop-color="#ffffff" stop-opacity="0"></stop><stop offset="1" stop-color="#e4ebe9"></stop></linearGradient><linearGradient gradientUnits="objectBoundingBox" id="linearGradient-5" node-id="17" spreadMethod="pad" x1="0.7796015" x2="0.7796015" y1="1.0626892" y2="0.13216753"><stop offset="0.0000004475343" stop-color="#f0f5f5"></stop><stop offset="1" stop-color="#d3e0de"></stop></linearGradient><linearGradient gradientUnits="objectBoundingBox" id="linearGradient1" node-id="93" spreadMethod="pad" x1="0.7796015" x2="0.7796015" y1="1.0626892" y2="0.13216753"><stop offset="0.0000004475343" stop-color="#f0f5f5"></stop><stop offset="1" stop-color="#d3e0de"></stop></linearGradient><linearGradient gradientUnits="objectBoundingBox" id="linearGradient-6" node-id="20" spreadMethod="pad" x1="0.7796015" x2="0.7796015" y1="1.0626892" y2="0.13216753"><stop offset="0.0000004475343" stop-color="#f0f5f5"></stop><stop offset="1" stop-color="#d3e0de"></stop></linearGradient><linearGradient gradientUnits="objectBoundingBox" id="linearGradient-7" node-id="23" spreadMethod="pad" x1="0.32216698" x2="0.32216698" y1="0.6146245" y2="0"><stop offset="0.0000004475343" stop-color="#f9fcfc" stop-opacity="0"></stop><stop offset="1" stop-color="#d8e6e3"></stop></linearGradient><linearGradient gradientUnits="objectBoundingBox" id="linearGradient-8" node-id="26" spreadMethod="pad" x1="0.7416625" x2="0.28384027" y1="0.94235754" y2="0"><stop offset="0.0000004475343" stop-color="#b8dbd0"></stop><stop offset="1" stop-color="#eef5f5"></stop></linearGradient></defs><path d="M 0.00 0.00 L 1100.00 0.00 L 1100.00 1100.00 L 0.00 1100.00 Z" fill="#ffffff" fill-rule="evenodd" hidden="true" node-id="120" stroke="none" target-height="1100" target-width="1100" target-x="0" target-y="0" visibility="hidden"></path><g node-id="122"><path d="M 50.00 50.00 L 1050.00 50.00 L 1050.00 1050.00 L 50.00 1050.00 Z" fill="none" group-id="1" hidden="true" id="矩形" node-id="32" stroke="none" target-height="1000" target-width="1000" target-x="50" target-y="50" visibility="hidden"></path><g node-id="123"><g node-id="127"><path d="M 741.72 224.51 L 741.72 454.57 C 741.72 486.13 716.13 511.72 684.57 511.72 L 338.95 511.72 L 338.95 511.72 C 339.38 413.09 340.00 307.16 340.82 193.93 L 340.82 193.93 C 340.88 186.09 347.25 179.75 355.10 179.75 L 416.90 179.75 C 424.77 179.75 431.15 186.12 431.18 193.99 C 431.24 210.85 431.22 219.39 431.13 219.63 L 431.13 219.69 C 431.13 219.69 431.24 219.63 431.30 219.58 L 431.30 219.41 C 431.30 211.29 437.82 204.76 445.92 204.76 C 454.02 204.76 460.54 211.29 460.54 219.41 C 460.54 224.20 464.42 228.08 469.21 228.08 L 492.76 228.08 C 510.55 228.08 524.98 213.65 524.98 195.86 L 524.98 183.48 C 524.98 167.52 537.92 154.57 553.89 154.57 C 569.85 154.57 582.79 167.52 582.79 183.48 L 582.79 260.53 L 582.79 260.53 C 582.74 260.75 582.74 260.92 582.74 261.15 L 582.74 296.80 C 582.74 302.04 586.95 306.27 592.19 306.27 C 597.36 306.27 601.58 302.05 601.58 296.80 L 601.58 269.03 C 619.75 268.98 632.91 268.92 641.62 268.92 C 650.34 268.92 654.61 268.98 655.00 269.03 C 656.41 268.86 655.00 247.51 655.00 247.51 L 657.22 247.51 C 671.18 247.51 682.51 258.84 682.51 272.80 L 682.51 272.80 L 682.51 272.80 C 682.51 276.63 685.60 279.74 689.43 279.74 C 693.25 279.74 696.35 276.63 696.35 272.80 L 696.35 224.51 C 696.35 211.99 706.50 201.83 719.03 201.83 C 731.56 201.83 741.72 211.99 741.72 224.51 Z" fill="url(#linearGradient-1)" fill-opacity="0.48000002" fill-rule="nonzero" group-id="1,2,6" id="路径" node-id="34" stroke="none" target-height="357.14288" target-width="402.76636" target-x="338.94885" target-y="154.5735"></path></g><g node-id="128"><path d="M 626.82 365.54 L 626.82 752.00 L 626.82 752.00 L 918.46 752.00 C 917.86 613.82 917.86 486.65 918.46 370.49 L 918.46 370.49 C 918.46 370.39 918.46 370.29 918.46 370.19 L 918.46 310.33 C 918.46 288.84 901.04 271.43 879.56 271.43 C 858.08 271.43 840.66 288.84 840.66 310.33 L 840.66 414.00 L 840.66 414.00 C 840.74 414.30 840.74 414.53 840.74 414.84 L 840.74 462.81 C 840.74 469.86 835.07 475.55 828.02 475.55 C 821.07 475.55 815.38 469.87 815.38 462.81 L 815.38 425.44 C 790.94 425.37 773.23 425.29 761.51 425.29 C 749.78 425.29 744.02 425.37 743.50 425.44 C 741.61 425.22 743.50 396.49 743.50 396.49 L 740.52 396.49 C 721.73 396.49 706.49 411.73 706.49 430.52 L 706.49 430.52 L 706.49 430.52 C 706.49 435.67 702.32 439.85 697.18 439.85 C 692.03 439.85 687.87 435.67 687.87 430.52 L 687.87 365.54 C 687.87 348.68 674.20 335.02 657.34 335.02 C 640.48 335.02 626.82 348.68 626.82 365.54 Z" fill="url(#linearGradient-2)" fill-opacity="0.768" fill-rule="nonzero" group-id="1,2,7" id="路径备份" node-id="35" stroke="none" target-height="480.5755" target-width="291.63977" target-x="626.8185" target-y="271.4286"></path></g><path d="M 155.06 830.58 L 483.11 830.58 C 482.53 696.44 481.68 552.27 480.56 398.06 L 480.56 398.06 C 480.50 390.21 474.12 383.88 466.27 383.88 L 373.30 383.88 C 365.43 383.88 359.04 390.25 359.02 398.12 C 358.92 424.06 358.94 437.20 359.07 437.54 L 359.07 437.62 C 359.07 437.62 358.92 437.54 358.85 437.47 L 358.85 437.24 C 358.85 426.32 350.07 417.54 339.17 417.54 C 328.27 417.54 319.50 426.32 319.50 437.24 C 319.50 443.69 314.27 448.91 307.83 448.91 L 276.14 448.91 C 252.19 448.91 232.78 429.50 232.78 405.55 L 232.78 388.86 C 232.78 367.40 215.38 350.00 193.92 350.00 C 172.46 350.00 155.06 367.40 155.06 388.86 L 155.06 492.57 L 155.06 493.41 L 155.06 541.38 L 155.06 830.58 L 155.06 830.58 Z" fill="url(#linearGradient-3)" fill-opacity="0.768" fill-rule="nonzero" group-id="1,2,8" id="路径备份-2" node-id="36" stroke="none" target-height="480.57547" target-width="328.04617" target-x="155.06284" target-y="350.00003"></path></g><g node-id="124"><g node-id="130"><path d="M 1042.86 750.00 C 1042.86 812.52 990.93 872.47 898.50 916.68 C 806.07 960.88 680.71 985.71 550.00 985.71 C 419.29 985.71 293.93 960.88 201.50 916.68 C 109.07 872.47 57.14 812.52 57.14 750.00 C 57.14 687.48 109.07 627.53 201.50 583.32 C 293.93 539.12 419.29 514.29 550.00 514.29 C 680.71 514.29 806.07 539.12 898.50 583.32 C 990.93 627.53 1042.86 687.48 1042.86 750.00 Z" fill="url(#linearGradient-4)" fill-opacity="0.8" fill-rule="nonzero" group-id="1,3,9" id="椭圆形" node-id="38" stroke="none" target-height="471.42853" target-width="985.7143" target-x="57.1429" target-y="514.2857"></path></g><g node-id="131"><path d="M 207.14 668.86 L 207.14 668.86 C 209.04 668.86 210.85 669.61 212.19 670.95 C 213.53 672.29 214.29 674.11 214.29 676.00 L 214.29 733.14 C 214.29 737.09 211.09 740.29 207.14 740.29 L 207.14 740.29 C 203.20 740.29 200.00 737.09 200.00 733.14 L 200.00 676.00 C 200.00 674.11 200.75 672.29 202.09 670.95 C 203.43 669.61 205.25 668.86 207.14 668.86 Z" fill="#d8e6e4" fill-rule="nonzero" group-id="1,3,10" id="矩形" node-id="40" stroke="none" target-height="71.42859" target-width="14.285721" target-x="200.00008" target-y="668.85913"></path><path d="M 207.14 679.57 C 231.42 679.57 251.10 659.89 251.10 635.62 C 251.10 619.43 236.45 595.99 207.14 565.29 C 200.47 572.46 195.69 577.71 192.82 581.07 C 192.39 581.57 196.43 587.67 204.95 599.37 C 192.96 591.86 186.64 588.53 185.98 589.36 C 170.79 608.54 163.19 623.96 163.19 635.62 C 163.19 659.89 182.87 679.57 207.14 679.57 Z" fill="url(#linearGradient-5)" fill-rule="nonzero" group-id="1,3,10" id="椭圆形" node-id="41" stroke="none" target-height="114.285706" target-width="87.91208" target-x="163.18689" target-y="565.2877"></path></g><g node-id="132"><path d="M 932.14 692.33 L 932.14 692.33 C 934.39 692.33 936.21 694.15 936.21 696.39 L 936.21 729.08 C 936.21 731.33 934.39 733.14 932.14 733.14 L 932.14 733.14 C 929.90 733.14 928.08 731.33 928.08 729.08 L 928.08 696.39 C 928.08 694.15 929.90 692.33 932.14 692.33 Z" fill="#d8e6e4" fill-rule="nonzero" group-id="1,3,11" id="矩形" node-id="43" stroke="none" target-height="40.816345" target-width="8.125" target-x="928.0804" target-y="692.32855"></path><path d="M 932.14 698.45 C 945.95 698.45 957.14 687.21 957.14 673.33 C 957.14 664.09 948.81 650.69 932.14 633.14 C 928.35 637.24 925.63 640.25 924.00 642.16 C 923.75 642.45 926.05 645.94 930.89 652.62 C 924.08 648.33 920.48 646.43 920.11 646.90 C 911.46 657.86 907.14 666.67 907.14 673.33 C 907.14 687.21 918.34 698.45 932.14 698.45 Z" fill="url(#linearGradient1)" fill-rule="nonzero" group-id="1,3,11" id="椭圆形" node-id="44" stroke="none" target-height="65.30615" target-width="50" target-x="907.1429" target-y="633.1449"></path></g><g node-id="133"><path d="M 860.71 620.90 L 860.71 620.90 C 862.96 620.90 864.78 622.72 864.78 624.96 L 864.78 657.65 C 864.78 659.90 862.96 661.72 860.71 661.72 L 860.71 661.72 C 858.47 661.72 856.65 659.90 856.65 657.65 L 856.65 624.96 C 856.65 622.72 858.47 620.90 860.71 620.90 Z" fill="#d8e6e4" fill-rule="nonzero" group-id="1,3,12" id="矩形" node-id="46" stroke="none" target-height="40.816345" target-width="8.125" target-x="856.65186" target-y="620.89996"></path><path d="M 860.71 627.02 C 874.52 627.02 885.71 615.78 885.71 601.90 C 885.71 592.66 877.38 579.26 860.71 561.72 C 856.92 565.81 854.20 568.82 852.57 570.73 C 852.33 571.02 854.62 574.51 859.46 581.19 C 852.65 576.90 849.05 575.00 848.68 575.47 C 840.04 586.43 835.71 595.24 835.71 601.90 C 835.71 615.78 846.91 627.02 860.71 627.02 Z" fill="url(#linearGradient-6)" fill-rule="nonzero" group-id="1,3,12" id="椭圆形" node-id="47" stroke="none" target-height="65.30615" target-width="50" target-x="835.71436" target-y="561.7163"></path></g></g><path d="M 889.46 777.72 L 644.93 878.88 L 399.34 642.18 L 636.03 641.05 Z" fill="url(#linearGradient-7)" fill-rule="nonzero" group-id="1" id="路径" node-id="48" stroke="none" target-height="237.83087" target-width="490.1233" target-x="399.33722" target-y="641.05066"></path><g node-id="125"><path d="M 728.32 360.31 L 692.96 325.50 C 689.74 322.31 685.55 320.73 681.39 320.73 C 677.20 320.73 673.01 322.31 669.82 325.50 C 663.41 331.85 663.41 342.10 669.82 348.45 L 692.74 371.21 L 675.79 388.71 C 670.26 394.34 670.26 403.38 675.79 408.99 C 678.48 411.84 682.11 413.23 685.70 413.23 L 685.86 413.23 L 705.03 413.20 L 705.03 561.70 C 705.03 567.21 700.53 571.83 694.99 571.83 L 694.80 571.83 C 689.36 571.73 684.99 567.34 684.99 561.92 L 684.99 469.38 C 684.99 445.66 665.57 426.46 641.65 426.46 C 636.11 426.46 631.64 422.00 631.64 416.55 L 631.64 469.44 C 631.64 463.96 636.11 459.53 641.65 459.53 C 644.40 459.53 646.93 460.65 648.74 462.44 C 650.56 464.24 651.68 466.72 651.68 469.47 L 651.68 561.95 C 651.68 585.67 671.10 604.90 695.02 604.90 C 718.97 604.90 738.39 585.64 738.39 561.95 L 738.39 384.03 C 738.39 374.71 734.52 366.31 728.32 360.31 Z M 723.50 394.46 L 708.04 394.49 L 701.16 394.49 L 710.60 387.27 L 720.47 379.73 C 722.45 381.72 723.50 384.04 723.50 386.50 L 723.50 394.46 L 723.50 394.46 Z" fill="#b4d6cb" fill-rule="nonzero" group-id="1,4" id="形状" node-id="50" stroke="none" target-height="284.17368" target-width="106.753296" target-x="631.63965" target-y="320.7278"></path><path d="M 636.60 387.89 L 636.60 307.23 C 636.60 290.27 622.71 276.51 605.59 276.51 L 442.70 276.51 C 425.57 276.51 411.68 290.27 411.68 307.23 L 411.68 603.34 C 411.68 605.29 410.08 606.91 408.12 606.91 C 402.92 606.91 398.12 608.92 394.56 612.24 C 390.96 615.48 388.67 620.09 388.41 625.24 C 387.94 636.22 396.77 645.26 407.79 645.26 L 640.24 645.26 C 650.89 645.26 659.80 636.83 659.91 626.28 C 660.02 615.55 651.33 606.87 640.53 606.87 C 638.35 606.87 636.60 605.14 636.60 602.98 L 636.60 449.40 C 636.60 443.02 636.60 394.23 636.60 387.89 Z" fill="url(#linearGradient-8)" fill-rule="nonzero" group-id="1,4" id="路径" node-id="51" stroke="none" target-height="368.75003" target-width="272.07886" target-x="387.93835" target-y="276.5095"></path><path d="M 408.12 606.91 C 402.92 606.91 398.12 608.92 394.56 612.24 C 390.96 615.48 388.67 620.09 388.41 625.24 C 387.94 636.22 396.77 645.26 407.79 645.26 L 640.24 645.26 C 650.89 645.26 659.80 636.83 659.91 626.28 C 660.02 615.55 651.33 606.87 640.53 606.87 C 638.35 606.87 410.08 606.91 408.12 606.91 Z" fill="#b4d6cb" fill-rule="nonzero" group-id="1,4" id="路径" node-id="52" stroke="none" target-height="38.38745" target-width="272.07886" target-x="387.93835" target-y="606.8721"></path><path d="M 446.15 347.86 C 446.15 330.68 457.49 316.81 471.42 316.81 L 578.82 316.81 C 592.76 316.81 604.09 330.68 604.09 347.86 L 604.09 433.26 C 604.09 450.39 592.76 464.32 578.82 464.32 L 471.42 464.32 C 457.49 464.32 446.15 450.39 446.15 433.26 L 446.15 347.86 Z" fill="#fafcfc" fill-rule="nonzero" group-id="1,4" id="路径" node-id="53" stroke="none" target-height="147.5144" target-width="157.93842" target-x="446.15393" target-y="316.8055"></path><path d="M 489.06 361.60 L 563.67 361.60 C 567.75 361.60 571.05 364.90 571.05 368.98 L 571.05 368.98 C 571.05 373.05 567.75 376.35 563.67 376.35 L 489.06 376.35 C 484.99 376.35 481.69 373.05 481.69 368.98 L 481.69 368.98 C 481.69 364.90 484.99 361.60 489.06 361.60 Z" fill="#b4d6cb" fill-rule="nonzero" group-id="1,4" id="矩形" node-id="54" stroke="none" target-height="14.751465" target-width="89.361664" target-x="481.68802" target-y="361.6007"></path><path d="M 489.06 405.86 L 504.10 405.86 C 508.17 405.86 511.48 409.16 511.48 413.23 L 511.48 413.23 C 511.48 417.30 508.17 420.61 504.10 420.61 L 489.06 420.61 C 484.99 420.61 481.69 417.30 481.69 413.23 L 481.69 413.23 C 481.69 409.16 484.99 405.86 489.06 405.86 Z" fill="#b4d6cb" fill-rule="nonzero" group-id="1,4" id="矩形备份-12" node-id="55" stroke="none" target-height="14.751434" target-width="29.787231" target-x="481.68802" target-y="405.85504"></path></g><g node-id="126"><path d="M 421.46 264.76 L 399.00 232.09 C 397.41 229.78 397.23 226.78 398.54 224.30 C 399.83 221.84 402.44 220.35 405.21 220.50 L 410.00 220.75 C 415.30 221.04 419.53 225.28 419.79 230.59 L 421.46 264.76 L 421.46 264.76 Z" fill="#b4d6cb" fill-opacity="0.6" fill-rule="nonzero" group-id="1,5" id="路径" node-id="57" stroke="none" target-height="44.40457" target-width="24.226013" target-x="397.2329" target-y="220.35382"></path><path d="M 412.19 270.27 L 381.06 264.53 C 378.85 264.12 377.05 262.53 376.39 260.38 C 375.73 258.26 376.36 255.95 378.01 254.46 L 380.86 251.89 C 384.01 249.05 388.81 249.06 391.96 251.91 L 412.19 270.27 L 412.19 270.27 Z" fill="#b4d6cb" fill-opacity="0.6" fill-rule="nonzero" group-id="1,5" id="路径" node-id="58" stroke="none" target-height="21.225677" target-width="36.45941" target-x="375.72583" target-y="249.04807"></path><path d="M 427.20 258.99 L 429.54 231.00 C 429.70 229.02 430.95 227.30 432.78 226.52 C 434.59 225.75 436.68 226.11 438.14 227.44 L 440.64 229.73 C 443.43 232.27 443.84 236.50 441.60 239.53 L 427.20 258.99 L 427.20 258.99 Z" fill="#b4d6cb" fill-opacity="0.6" fill-rule="nonzero" group-id="1,5" id="路径" node-id="59" stroke="none" target-height="33.239273" target-width="16.633423" target-x="427.20337" target-y="225.75307"></path></g></g></svg>